PathFileType	4	(X/Y/Z)	C:/Users/opensim2020/Desktop/walking_exp_matlab/subject03_walking06_straight_01.trc																																																																																																																																		
DataRate	CameraRate	NumFrames	NumMarkers	Units	OrigDataRate	OrigDataStartFrame	OrigNumFrames																																																																																																																														
100	100	6	44	mm	100	759	362																																																																																																																														
Frame#	Time	LFHD			RFHD			LBHD			RBHD			C7			T10			CLAV			STRN			RBAK			LSHO			LUPA			LELB			LFRM			LWRA			LWRB			LFIN			RSHO			RUPA			RELB			RFRM			RWRA			RWRB			RFIN			LASI			RASI			LPSI			RPSI			LTHI			LKNE			LTIB			LANK			LHEE			LTOE			RTHI			RKNE			RTIB			RANK			RHEE			RTOE			*39			*40			*41			*42			*43		
		X1	Y1	Z1	X2	Y2	Z2	X3	Y3	Z3	X4	Y4	Z4	X5	Y5	Z5	X6	Y6	Z6	X7	Y7	Z7	X8	Y8	Z8	X9	Y9	Z9	X10	Y10	Z10	X11	Y11	Z11	X12	Y12	Z12	X13	Y13	Z13	X14	Y14	Z14	X15	Y15	Z15	X16	Y16	Z16	X17	Y17	Z17	X18	Y18	Z18	X19	Y19	Z19	X20	Y20	Z20	X21	Y21	Z21	X22	Y22	Z22	X23	Y23	Z23	X24	Y24	Z24	X25	Y25	Z25	X26	Y26	Z26	X27	Y27	Z27	X28	Y28	Z28	X29	Y29	Z29	X30	Y30	Z30	X31	Y31	Z31	X32	Y32	Z32	X33	Y33	Z33	X34	Y34	Z34	X35	Y35	Z35	X36	Y36	Z36	X37	Y37	Z37	X38	Y38	Z38	X39	Y39	Z39	X40	Y40	Z40	X41	Y41	Z41	X42	Y42	Z42	X43	Y43	Z43	X44	Y44	Z44
																																																																																																																																					
317	3.16	1161.7467	1623.56665	1410.11719	1171.95947	1626.73303	1543.44446	1032.05688	1586.01843	1424.35706	1046.94531	1588.7356	1554.41077	1001.6687	1426.87073	1483.67249	957.26855	1113.9176	1484.65332	1120.19324	1346.23364	1471.1123	1158.23438	1180.65125	1459.98596	953.74475	1251.68311	1583.69263	1062.58228	1387.12439	1321.72852	1052.31372	1191.27332	1249.68921	1065.15039	1069.2406	1235.15979	1096.23279	942.67139	1228.38525	1121.7998	823.84839	1251.61609	1094.03418	831.14838	1203.31165	1110.66907	747.59607	1207.23364	1090.53162	1370.73035	1633.82471	1115.95923	1150.62695	1707.26013	1147.12537	1042.39673	1717.82837	1188.45386	912.09723	1714.22034	1230.14197	824.63867	1671.12329	1206.39197	813.2428	1718.63306	1241.0885	748.40234	1703.83167	1111.36597	949.40137	1351.25732	1134.65894	946.76935	1586.95105	954.72607	966.27838	1414.09485	970.65686	978.89819	1561.93188	1125.53638	653.69604	1294.44324	1187.30554	484.7337	1315.80005	1095.26624	308.05963	1328.05432	1024.09961	113.78504	1376.49792	980.14709	88.20148	1422.1803	1154.71423	47.7379	1378.14929	1071.97522	652.20929	1624.05823	1075.01758	472.89642	1585.297	1022.49591	289.01828	1586.92444	988.93445	75.53461	1534.53943	945.21997	43.73983	1484.13794	1130.61853	36.81851	1522.9021	1086.50452	1687.53259	1470.46765	NaN	NaN	NaN	NaN	NaN	NaN	NaN	NaN	NaN	NaN	NaN	NaN
318	3.17	1170.52856	1622.64124	1408.87671	1181.02625	1626.22131	1542.15894	1040.89014	1585.16016	1423.46143	1056.04773	1588.31165	1553.48315	1010.26422	1426.48181	1483.63721	965.70056	1113.26746	1484.78406	1128.68909	1345.40137	1470.2915	1166.64111	1179.87549	1459.51587	962.63104	1251.42932	1583.99365	1070.80347	1386.29407	1321.16333	1058.58447	1190.19055	1249.05554	1069.63757	1068.11182	1234.31689	1099.23669	941.20276	1227.19934	1123.82056	822.17175	1250.20874	1095.7312	829.75043	1202.12048	1111.4873	746.02124	1206.06128	1099.95117	1370.26794	1633.23889	1127.03076	1150.59009	1707.02197	1158.77771	1042.55518	1717.39478	1202.05762	912.97937	1713.67212	1244.84583	826.35419	1670.32043	1221.20862	814.28241	1717.67517	1256.68005	749.9007	1702.52966	1120.09241	949.00153	1351.41907	1142.83032	946.15649	1587.15503	962.8963	965.50018	1413.66565	978.90027	978.32355	1561.85583	1136.44568	653.86584	1294.61646	1199.15552	485.46509	1317.10327	1114.63086	304.7551	1328.66553	1053.41199	106.74508	1376.30945	1010.82861	78.74309	1421.64355	1187.32935	47.55276	1376.58643	1077.92468	651.70087	1624.01807	1079.09766	472.44601	1585.4386	1024.73181	289.01791	1587.01025	989.09717	75.82864	1534.47888	945.6261	44.11354	1484.11621	1130.67285	36.93492	1523.01855	1095.28943	1687.47107	1470.91577	NaN	NaN	NaN	NaN	NaN	NaN	NaN	NaN	NaN	NaN	NaN	NaN
319	3.18	1179.28857	1621.65442	1407.52649	1190.06079	1625.63538	1540.83057	1049.58997	1584.14929	1422.53345	1065.12329	1587.73352	1552.53064	1019.15442	1425.74597	1483.26904	974.29254	1112.84314	1484.79236	1137.40344	1344.57263	1469.71533	1175.10815	1178.98828	1459.02063	971.54449	1251.05505	1584.1405	1079.08997	1385.30847	1320.61841	1064.85083	1189.18042	1248.53394	1074.40723	1067.09045	1233.44995	1102.44348	939.80237	1226.10291	1126.10388	820.59308	1248.74658	1097.59204	828.33313	1201.0459	1112.66077	744.43054	1204.96729	1109.33655	1369.67847	1632.61987	1138.07434	1150.49268	1706.80762	1170.74854	1042.75293	1717.08032	1215.56592	913.75708	1713.02649	1259.22949	827.77545	1669.23401	1235.89087	815.21094	1716.63708	1272.1355	751.32343	1701.15491	1128.79382	948.21277	1351.43994	1150.87549	945.50299	1587.41113	971.65924	964.80011	1413.34741	987.03217	977.58185	1561.50293	1147.10083	653.76605	1294.71338	1210.4823	485.72989	1318.3678	1133.9751	301.44904	1329.21436	1083.49402	100.17506	1375.96252	1042.34766	69.90579	1421.3595	1220.06323	47.82878	1375.32019	1083.94226	651.22394	1624.04626	1083.28162	472.03162	1585.53235	1027.31799	289.13205	1587.27209	989.33112	76.18321	1534.41382	945.72107	44.64773	1484.00977	1130.72192	37.01507	1523.13184	1104.28015	1686.06665	1467.84753	NaN	NaN	NaN	NaN	NaN	NaN	NaN	NaN	NaN	NaN	NaN	NaN
320	3.19	1188.04907	1620.58508	1406.15723	1199.0708	1624.97778	1539.46472	1058.39063	1583.06897	1421.55481	1074.15979	1587.0155	1551.54224	1028.12415	1424.98584	1482.81958	982.68616	1112.13049	1484.61108	1146.15784	1343.62451	1469.04565	1183.51111	1177.93542	1458.52429	980.40344	1250.5874	1584.19446	1087.25049	1384.26465	1319.96912	1071.25415	1188.08508	1247.83313	1078.93542	1065.90076	1232.65515	1105.66101	938.37317	1225.047	1128.70593	819.14496	1247.10205	1099.65344	826.87982	1200.03833	1114.09558	742.85565	1204.03882	1118.68994	1368.9436	1631.95862	1149.07312	1150.1665	1706.41272	1182.64539	1042.77051	1716.63623	1228.64355	913.90869	1711.69702	1273.39063	829.01526	1668.02222	1250.45215	816.01978	1715.46252	1287.44385	752.7171	1699.68274	1137.6051	947.39502	1351.67346	1158.95361	944.79211	1587.66321	980.26489	963.79736	1413.03796	995.10669	976.83636	1561.13928	1157.3562	653.24384	1294.91809	1221.44568	485.72543	1319.74182	1153.1377	298.13504	1329.82898	1113.25562	94.19662	1375.81702	1074.15015	61.91415	1421.51196	1252.56787	48.26447	1374.47363	1090.11951	650.72632	1624.05566	1087.65894	471.6228	1585.64819	1029.67761	289.08261	1587.23779	989.55304	76.55721	1534.32214	945.68054	45.19542	1483.66809	1130.99878	37.20552	1523.30701	1112.70801	1685.96692	1469.49658	NaN	NaN	NaN	NaN	NaN	NaN	NaN	NaN	NaN	NaN	NaN	NaN
321	3.2	1196.48706	1619.41272	1404.49512	1208.06201	1624.22791	1538.01257	1067.17993	1581.80103	1420.55347	1083.2002	1586.14319	1550.47815	1037.14734	1424.13062	1482.38123	991.29559	1111.21448	1484.05493	1154.98901	1342.55762	1468.29883	1191.99902	1176.81396	1458.03125	989.29749	1249.90369	1583.97778	1095.58838	1383.11267	1319.28406	1077.07483	1186.71777	1247.36938	1083.43286	1064.53552	1231.79456	1109.01294	936.90845	1224.26172	1131.59399	817.7868	1245.49451	1101.89673	825.38257	1199.14526	1115.84106	741.27686	1203.40381	1128.05994	1368.03174	1631.28125	1159.96252	1149.73718	1705.97485	1194.48022	1042.65698	1716.10425	1241.95227	914.4989	1710.83655	1287.38904	830.14319	1666.71033	1264.85266	816.72327	1714.08862	1302.57556	753.97113	1698.13806	1146.58521	946.26672	1351.44653	1167.03772	943.97559	1587.8877	988.94098	962.21637	1412.57056	1003.22852	975.85999	1560.59595	1167.14771	652.29987	1295.26086	1231.80933	484.97751	1321.07178	1172.13611	294.94092	1330.51416	1143.44177	89.15874	1375.68445	1105.71899	54.75323	1420.91235	1284.60535	48.88987	1374.14124	1096.48047	650.25562	1624.07275	1092.07422	471.19388	1585.72266	1032.00049	289.11636	1587.19214	989.80902	76.9773	1534.23657	945.7157	45.92443	1483.51624	1130.75232	36.82705	1523.08997	1121.84338	1684.15686	1465.15747	NaN	NaN	NaN	NaN	NaN	NaN	NaN	NaN	NaN	NaN	NaN	NaN
322	3.21	1205.37769	1618.27869	1403.32727	1217.10547	1623.44714	1536.58997	1075.90503	1580.3988	1419.56384	1092.34021	1585.19617	1549.43689	1046.09338	1423.06616	1481.86084	999.65741	1110.35974	1483.46228	1163.83154	1341.36145	1467.49524	1200.45618	1175.53503	1457.5271	997.97253	1249.17542	1583.74304	1103.84668	1381.82715	1318.51074	1083.43909	1185.58655	1246.54102	1088.15991	1063.4043	1230.97815	1112.40356	935.46741	1223.16479	1133.10559	815.57977	1246.172	1104.20374	823.86969	1198.46106	1117.85657	739.72876	1202.68103	1137.38025	1366.97534	1630.53992	1170.83936	1149.23193	1705.61243	1206.14209	1042.30151	1715.2085	1255.16089	914.99121	1709.93018	1301.09839	831.08557	1665.23499	1279.05957	817.31757	1712.8396	1317.54163	755.12927	1696.48303	1155.55676	944.95856	1351.54724	1175.16333	943.16724	1588.05591	997.63318	961.07635	1411.65308	1011.3847	974.86456	1559.92346	1176.34094	650.94751	1295.72717	1241.81372	484.17773	1322.5282	1190.79187	291.99045	1331.26978	1173.01538	84.4701	1375.42688	1137.0365	48.77356	1420.74402	1316.24695	49.67505	1374.08179	1102.91919	649.75665	1624.03967	1096.64075	470.79077	1585.77893	1034.37976	289.20691	1587.07861	990.12952	77.5364	1534.19617	945.86804	46.6516	1483.29871	1130.64404	36.67952	1523.12402	1130.58142	1683.06909	1463.70935	NaN	NaN	NaN	NaN	NaN	NaN	NaN	NaN	NaN	NaN	NaN	NaN
